<?xml version="1.0" standalone="no"?>
<!DOCTYPE svg PUBLIC "-//W3C//DTD SVG 20010904//EN"
 "http://www.w3.org/TR/2001/REC-SVG-20010904/DTD/svg10.dtd">
<svg version="1.0" xmlns="http://www.w3.org/2000/svg"
 width="512.000000pt" height="512.000000pt" viewBox="0 0 512.000000 512.000000"
 preserveAspectRatio="xMidYMid meet">
<metadata>
Created by potrace 1.11, written by Peter Selinger 2001-2013
</metadata>
<g transform="translate(0.000000,512.000000) scale(0.100000,-0.100000)"
fill="#000000" stroke="none">
<path d="M1100 3695 l0 -585 70 0 70 0 0 510 0 510 1000 0 1000 0 0 75 0 75
-1070 0 -1070 0 0 -585z"/>
<path d="M1780 2560 l0 -1070 75 0 75 0 0 525 0 525 630 0 630 0 0 -525 0
-525 75 0 75 0 0 1070 0 1070 -75 0 -75 0 0 -475 0 -475 -630 0 -630 0 0 475
0 475 -75 0 -75 0 0 -1070z"/>
<path d="M3880 1500 l0 -510 -1000 0 -1000 0 0 -75 0 -75 1070 0 1070 0 0 585
0 585 -70 0 -70 0 0 -510z"/>
</g>
</svg>
